<mxfile host="app.diagrams.net" modified="2020-07-15T03:49:21.714Z" agent="5.0 (Macintosh; Intel Mac OS X 10_12_6) AppleWebKit/537.36 (KHTML, like Gecko) Chrome/83.0.4103.116 Safari/537.36" etag="eNVOMAu6RDf6w_xuDz6Q" version="13.4.2" type="github">
  <diagram id="B_QkFzZtCHSM38VKsJ9S" name="Page-1">
    <mxGraphModel dx="946" dy="537" grid="1" gridSize="10" guides="1" tooltips="1" connect="1" arrows="1" fold="1" page="1" pageScale="1" pageWidth="827" pageHeight="1169" math="0" shadow="0">
      <root>
        <mxCell id="0" />
        <mxCell id="1" parent="0" />
        <mxCell id="7ppkrrDHbv6pOlSbB4aA-1" value="" style="endArrow=none;html=1;" parent="1" edge="1">
          <mxGeometry width="50" height="50" relative="1" as="geometry">
            <mxPoint x="40" y="500" as="sourcePoint" />
            <mxPoint x="740" y="500" as="targetPoint" />
          </mxGeometry>
        </mxCell>
        <mxCell id="7ppkrrDHbv6pOlSbB4aA-2" value="" style="endArrow=none;html=1;" parent="1" edge="1">
          <mxGeometry width="50" height="50" relative="1" as="geometry">
            <mxPoint x="40" y="220" as="sourcePoint" />
            <mxPoint x="740" y="220" as="targetPoint" />
          </mxGeometry>
        </mxCell>
        <mxCell id="7ppkrrDHbv6pOlSbB4aA-15" style="edgeStyle=orthogonalEdgeStyle;rounded=0;orthogonalLoop=1;jettySize=auto;html=1;entryX=0.5;entryY=0;entryDx=0;entryDy=0;" parent="1" source="7ppkrrDHbv6pOlSbB4aA-3" target="7ppkrrDHbv6pOlSbB4aA-14" edge="1">
          <mxGeometry relative="1" as="geometry" />
        </mxCell>
        <mxCell id="7ppkrrDHbv6pOlSbB4aA-29" style="edgeStyle=orthogonalEdgeStyle;rounded=0;orthogonalLoop=1;jettySize=auto;html=1;entryX=0.5;entryY=0;entryDx=0;entryDy=0;" parent="1" source="7ppkrrDHbv6pOlSbB4aA-3" target="7ppkrrDHbv6pOlSbB4aA-24" edge="1">
          <mxGeometry relative="1" as="geometry" />
        </mxCell>
        <mxCell id="7ppkrrDHbv6pOlSbB4aA-3" value="User" style="shape=umlActor;verticalLabelPosition=bottom;verticalAlign=top;html=1;outlineConnect=0;" parent="1" vertex="1">
          <mxGeometry x="360" y="20" width="30" height="60" as="geometry" />
        </mxCell>
        <mxCell id="7ppkrrDHbv6pOlSbB4aA-18" style="edgeStyle=orthogonalEdgeStyle;rounded=0;orthogonalLoop=1;jettySize=auto;html=1;exitX=0.5;exitY=1;exitDx=0;exitDy=0;entryX=0.5;entryY=0;entryDx=0;entryDy=0;" parent="1" source="7ppkrrDHbv6pOlSbB4aA-14" target="7ppkrrDHbv6pOlSbB4aA-16" edge="1">
          <mxGeometry relative="1" as="geometry" />
        </mxCell>
        <mxCell id="7ppkrrDHbv6pOlSbB4aA-21" style="edgeStyle=orthogonalEdgeStyle;rounded=0;orthogonalLoop=1;jettySize=auto;html=1;exitX=0.5;exitY=1;exitDx=0;exitDy=0;" parent="1" edge="1">
          <mxGeometry relative="1" as="geometry">
            <mxPoint x="375" y="207" as="sourcePoint" />
            <mxPoint x="410" y="278" as="targetPoint" />
            <Array as="points">
              <mxPoint x="375" y="240" />
              <mxPoint x="410" y="240" />
            </Array>
          </mxGeometry>
        </mxCell>
        <mxCell id="7ppkrrDHbv6pOlSbB4aA-42" style="edgeStyle=orthogonalEdgeStyle;rounded=0;orthogonalLoop=1;jettySize=auto;html=1;" parent="1" edge="1">
          <mxGeometry relative="1" as="geometry">
            <mxPoint x="375" y="198" as="sourcePoint" />
            <mxPoint x="250" y="276" as="targetPoint" />
            <Array as="points">
              <mxPoint x="375" y="238" />
              <mxPoint x="250" y="238" />
            </Array>
          </mxGeometry>
        </mxCell>
        <mxCell id="7ppkrrDHbv6pOlSbB4aA-14" value="DNS LB" style="rounded=1;whiteSpace=wrap;html=1;" parent="1" vertex="1">
          <mxGeometry x="315" y="140" width="120" height="60" as="geometry" />
        </mxCell>
        <mxCell id="7ppkrrDHbv6pOlSbB4aA-16" value="Login Server" style="rounded=1;whiteSpace=wrap;html=1;" parent="1" vertex="1">
          <mxGeometry x="40" y="277" width="120" height="60" as="geometry" />
        </mxCell>
        <mxCell id="7ppkrrDHbv6pOlSbB4aA-44" style="edgeStyle=orthogonalEdgeStyle;rounded=0;orthogonalLoop=1;jettySize=auto;html=1;exitX=0.5;exitY=1;exitDx=0;exitDy=0;" parent="1" source="7ppkrrDHbv6pOlSbB4aA-17" target="7ppkrrDHbv6pOlSbB4aA-27" edge="1">
          <mxGeometry relative="1" as="geometry" />
        </mxCell>
        <mxCell id="7ppkrrDHbv6pOlSbB4aA-17" value="Login Server" style="rounded=1;whiteSpace=wrap;html=1;" parent="1" vertex="1">
          <mxGeometry x="50" y="327" width="120" height="60" as="geometry" />
        </mxCell>
        <mxCell id="7ppkrrDHbv6pOlSbB4aA-20" value="Game Server" style="rounded=1;whiteSpace=wrap;html=1;" parent="1" vertex="1">
          <mxGeometry x="370" y="278" width="120" height="60" as="geometry" />
        </mxCell>
        <mxCell id="7ppkrrDHbv6pOlSbB4aA-34" style="edgeStyle=orthogonalEdgeStyle;rounded=0;orthogonalLoop=1;jettySize=auto;html=1;exitX=0.5;exitY=1;exitDx=0;exitDy=0;entryX=0.5;entryY=0;entryDx=0;entryDy=0;" parent="1" source="7ppkrrDHbv6pOlSbB4aA-23" target="7ppkrrDHbv6pOlSbB4aA-30" edge="1">
          <mxGeometry relative="1" as="geometry" />
        </mxCell>
        <mxCell id="7ppkrrDHbv6pOlSbB4aA-35" style="edgeStyle=orthogonalEdgeStyle;rounded=0;orthogonalLoop=1;jettySize=auto;html=1;exitX=0.5;exitY=1;exitDx=0;exitDy=0;entryX=0.5;entryY=0;entryDx=0;entryDy=0;" parent="1" source="7ppkrrDHbv6pOlSbB4aA-23" target="7ppkrrDHbv6pOlSbB4aA-32" edge="1">
          <mxGeometry relative="1" as="geometry" />
        </mxCell>
        <mxCell id="7ppkrrDHbv6pOlSbB4aA-36" style="edgeStyle=orthogonalEdgeStyle;rounded=0;orthogonalLoop=1;jettySize=auto;html=1;exitX=0.5;exitY=1;exitDx=0;exitDy=0;" parent="1" source="7ppkrrDHbv6pOlSbB4aA-23" target="7ppkrrDHbv6pOlSbB4aA-33" edge="1">
          <mxGeometry relative="1" as="geometry" />
        </mxCell>
        <mxCell id="7ppkrrDHbv6pOlSbB4aA-43" style="edgeStyle=orthogonalEdgeStyle;rounded=0;orthogonalLoop=1;jettySize=auto;html=1;exitX=0.5;exitY=1;exitDx=0;exitDy=0;entryX=0;entryY=0.5;entryDx=0;entryDy=0;" parent="1" source="7ppkrrDHbv6pOlSbB4aA-23" target="7ppkrrDHbv6pOlSbB4aA-37" edge="1">
          <mxGeometry relative="1" as="geometry" />
        </mxCell>
        <mxCell id="7ppkrrDHbv6pOlSbB4aA-23" value="Game Server" style="rounded=1;whiteSpace=wrap;html=1;" parent="1" vertex="1">
          <mxGeometry x="380" y="327" width="120" height="60" as="geometry" />
        </mxCell>
        <mxCell id="7ppkrrDHbv6pOlSbB4aA-24" value="CDN&lt;br&gt;Scripts/Config" style="rounded=1;whiteSpace=wrap;html=1;" parent="1" vertex="1">
          <mxGeometry x="580" y="278" width="120" height="60" as="geometry" />
        </mxCell>
        <mxCell id="7ppkrrDHbv6pOlSbB4aA-27" value="User DB&lt;br&gt;Mysql" style="shape=cylinder;whiteSpace=wrap;html=1;boundedLbl=1;backgroundOutline=1;" parent="1" vertex="1">
          <mxGeometry x="80" y="548" width="60" height="75" as="geometry" />
        </mxCell>
        <mxCell id="7ppkrrDHbv6pOlSbB4aA-30" value="Redis+LevelDB" style="shape=cylinder;whiteSpace=wrap;html=1;boundedLbl=1;backgroundOutline=1;" parent="1" vertex="1">
          <mxGeometry x="315" y="550" width="100" height="80" as="geometry" />
        </mxCell>
        <mxCell id="7ppkrrDHbv6pOlSbB4aA-31" value="Redis+LevelDB" style="shape=cylinder;whiteSpace=wrap;html=1;boundedLbl=1;backgroundOutline=1;" parent="1" vertex="1">
          <mxGeometry x="330" y="610" width="100" height="80" as="geometry" />
        </mxCell>
        <mxCell id="7ppkrrDHbv6pOlSbB4aA-32" value="User Location&lt;br&gt;MongoDB" style="shape=cylinder;whiteSpace=wrap;html=1;boundedLbl=1;backgroundOutline=1;" parent="1" vertex="1">
          <mxGeometry x="495" y="550" width="80" height="80" as="geometry" />
        </mxCell>
        <mxCell id="7ppkrrDHbv6pOlSbB4aA-33" value="POI DB&lt;br&gt;MongoDB" style="shape=cylinder;whiteSpace=wrap;html=1;boundedLbl=1;backgroundOutline=1;" parent="1" vertex="1">
          <mxGeometry x="615" y="550" width="80" height="80" as="geometry" />
        </mxCell>
        <mxCell id="7ppkrrDHbv6pOlSbB4aA-37" value="Local Cache" style="shape=cylinder;whiteSpace=wrap;html=1;boundedLbl=1;backgroundOutline=1;" parent="1" vertex="1">
          <mxGeometry x="555" y="387" width="140" height="60" as="geometry" />
        </mxCell>
        <mxCell id="7ppkrrDHbv6pOlSbB4aA-40" value="ServerList Server" style="rounded=1;whiteSpace=wrap;html=1;" parent="1" vertex="1">
          <mxGeometry x="200" y="278" width="120" height="60" as="geometry" />
        </mxCell>
        <mxCell id="7ppkrrDHbv6pOlSbB4aA-41" value="ServerList Server" style="rounded=1;whiteSpace=wrap;html=1;" parent="1" vertex="1">
          <mxGeometry x="210" y="327" width="120" height="60" as="geometry" />
        </mxCell>
      </root>
    </mxGraphModel>
  </diagram>
</mxfile>
